<svg id="Layer_1" data-name="Layer 1" xmlns="http://www.w3.org/2000/svg" viewBox="0 0 237.67 175.83">
  <title>form-salon-favicon</title>
  <path d="M188-9.58a20.93,20.93,0,0,0-12.88-14q-0.6-.19-1.21-0.35a29.3,29.3,0,0,0-.47-8.89,38.91,38.91,0,0,0-5.26-12.6,41.19,41.19,0,0,0-8.92-10.27,40.11,40.11,0,0,0-25.22-8.86,39,39,0,0,0-24.93,9.38l-0.37.34a5.77,5.77,0,0,1,1.53,2l0.45-.4A36.27,36.27,0,0,1,134-61.54a38,38,0,0,1,23.1,8.5,39,39,0,0,1,8.1,9.47,34,34,0,0,1,4.7,11.5,27.38,27.38,0,0,1,.4,7.6,27.61,27.61,0,0,0-14.08,2.7,23,23,0,0,0-7.63,5.67,16,16,0,0,0-3.86,8.5A15.75,15.75,0,0,1,149-15.81,23.32,23.32,0,0,1,156.61-21a27,27,0,0,1,13.55-2,29.14,29.14,0,0,1-6.22,14.1,38.29,38.29,0,0,1-9.32,8.25,41.49,41.49,0,0,1-11.36,5.1,50.79,50.79,0,0,1-11.43,1.7C124.77,3.32,117.88,0,111-3.45c-11.25-5.62-22.69-11-34.11-16.22l-17.2-7.8a40.24,40.24,0,0,0-18.94-4.07c-6.43.21-13.26,1.68-18.38,6.3a22,22,0,0,0-3.24,4.16,5.47,5.47,0,0,1,.18,1.26,24.44,24.44,0,0,0,.25,2.89,19.8,19.8,0,0,1,4.55-6.73l0,0C28.62-27.51,35-28.79,40.94-28.8a38.24,38.24,0,0,1,17.5,4.2l17.08,8c11.38,5.4,22.6,10.8,33.9,16.5,4,1.9,8,3.9,12.1,5.68q-1.67-.18-3.32-0.42A184.39,184.39,0,0,1,93-.89L80.41-4.61C76.18-5.85,71.91-6.85,67.74-8a234.71,234.71,0,0,0-25.66-6c-7.18-1.1-14.67-1.63-22-.35,0.21,0.82.45,1.63,0.72,2.42,6.8-1,13.85-.33,20.71.89,8.49,1.5,16.8,4,25.2,6.33,4.24,1.2,8.5,2.2,12.6,3.5l12.52,3.8c8.38,2.5,16.9,5,25.7,6.3a81.78,81.78,0,0,0,14.3,1,113.18,113.18,0,0,0,12.9,4c6.21,1.5,12.7,2.5,19.2,1.88A31.36,31.36,0,0,0,182,8.49,19,19,0,0,0,187.74.37,16.86,16.86,0,0,0,188-9.58ZM185.57-.51a16.57,16.57,0,0,1-5.19,7,28.63,28.63,0,0,1-16.6,6,60.24,60.24,0,0,1-18.13-2.09c-1.77-.46-3.53-1-5.28-1.53,1.35-.25,2.69-0.55,4.09-0.9l0,0a44.44,44.44,0,0,0,12.41-5.66,42.12,42.12,0,0,0,10.13-9.12,32.54,32.54,0,0,0,6.84-15.62l0.9,0.3A19.26,19.26,0,0,1,186-9.11,14.57,14.57,0,0,1,185.57-.51Z" transform="translate(6.79 64.58)"/>
  <path d="M10.66-11.34A30.92,30.92,0,0,0,3.53-6.78,34.41,34.41,0,0,0-4.72,3.82a23,23,0,0,0-2.06,7.93,5.82,5.82,0,0,1,1.61.45A22.79,22.79,0,0,1-3,4.43,33.91,33.91,0,0,1,5-5.32a28.48,28.48,0,0,1,6.3-3.91C11.08-9.93,10.86-10.63,10.66-11.34Z" transform="translate(6.79 64.58)"/>
  <path d="M55.46,33.16H40.09c0.47-2.76,1.14-6.48,1.63-9.27,0.56-3.18,1.12-6.36,1.66-9.51,1.11-6.55,6.47-7.92,10.76-7.92a12,12,0,0,1,3,.32c-3.68,1-6.79,3.91-7.33,7.2a6,6,0,0,0,1.3,5.15,7.87,7.87,0,0,0,6.3,2.8c4.81,0,9.33-3.39,10.06-7.56A10.63,10.63,0,0,0,65.3,5.45c-2.29-2.71-6-4.21-10.55-4.21-10.62,0-19.13,3.41-24.6,9.5l-0.09-.1a4.55,4.55,0,0,1-.36.44l0.09,0.08A26.68,26.68,0,0,0,23.87,24L22.26,33.1H10.51l-0.42,2.6-0.12,0a5.66,5.66,0,0,1-.14.78H9.89L9.71,37.6H21.44l-7,38.14H32.64L39.28,37.6H49.66A26.47,26.47,0,0,1,55.46,33.16Z" transform="translate(6.79 64.58)"/>
  <path d="M222.75,69.86h0a1.42,1.42,0,0,1-1.39-1.57c0-2.78,5.74-17.32,5.74-25.1,0-4-2.78-11.95-12.32-11.95-8.8,0-14.72,9.45-16.76,16.67h-0.19c1.57-12.59-2.31-16.67-10.19-16.67-9.54,0-14.72,9.91-16.67,17.7h-0.19c1.3-12.5-2.22-17.69-10.37-17.69a13.53,13.53,0,0,0-11.49,6.1c-1.22-4.15-5.06-6.59-9.77-6.59-7.41,0-11.58,5.37-14.63,15.4H124.3c0.46-11.95-3.06-15.37-10.19-15.37-8.54,0-13.82,5.9-16.59,13.27-2-5.84-6.64-9.77-12-12l0.33,0.44c1.83,2.53,0,6.74-3,7.35a5.33,5.33,0,0,1-.75.27C82,40.74,82,41.36,81.88,42c0,0.11,0,.21-0.07.32a23.58,23.58,0,0,1,0,8.42c-0.59,3.35-2.54,8.09.86,10.65,1.94,1.46,5.26,1.54,7.5,2.67a4.36,4.36,0,0,1,2.12,2.46,23.3,23.3,0,0,0,6.05-16,21.08,21.08,0,0,0-.12-2.19c2.4-7.08,4.06-9.66,5.26-9.66s1.8,1.3,1,5.2L98.68,76.58c4-.19,6.85-0.46,10.19-0.46,2,0,4.1.1,5.9,0.19l5.5,0.3c5.56-32.5,8.06-36.76,9.26-36.76,0.93,0,1.1,0,1.1,2.2,0,4.3,1.8,9,8.3,9,6.85,0,10.09-5,10.18-10.25a3.09,3.09,0,0,1,2.29-1.19c1.48,0,1.9.9,0.7,6.3l-6,31.2c3.7-.28,7.5-0.46,10.93-0.46,1.76,0,3.4.1,5.1,0.2s3.3,0.2,4.9.28c3.33-20.93,5.09-25.93,6.48-29.91,2.31-6.58,3-8,5.28-8,0.93,0,1.3,1.3.4,6l-5.74,31.86c3.71-.19,7.13-0.46,10-0.46,1.76,0,3.4.1,5.1,0.19l5.1,0.3c3.61-21.39,5.74-27.87,6.95-30.84,2.41-5.65,3.7-7,5.37-7a1.11,1.11,0,0,1,1.1,1.2c0,2.5-4.91,19.08-4.91,24.8,0,6.8,3.3,12.4,10.8,12.41,11.29,0,14.81-8.6,18-17.85C230.6,60.3,224,69.82,222.75,69.86Z" transform="translate(6.79 64.58)"/>
  <g>
    <path d="M22.63,101.71l-0.17-.08c-1.48-.7-2.62-1.34-2.62-2.72a2.17,2.17,0,0,1,2.42-2.07,4.41,4.41,0,0,1,3,1L25.48,98l1.15-1.75-0.18-.14a6.67,6.67,0,0,0-4.18-1.27c-2.34,0-4.71,1.43-4.71,4.16,0,2.5,1.8,3.6,3.7,4.57l0.21,0.1c1.7,0.8,3.2,1.6,3.2,3.19a2.68,2.68,0,0,1-2.88,2.4A4.62,4.62,0,0,1,18.46,108l-0.21-.19L17,109.51l0.16,0.1a6.58,6.58,0,0,0,4.5,1.63c3.1,0,5.27-1.8,5.27-4.37,0-3.06-2.31-4.16-4.31-5.17h0Z" transform="translate(6.79 64.58)"/>
    <path d="M68.54,95.12l-6.06,15.82h2.31l1.4-3.8h6.62l1.4,3.8h2.49L70.64,95.12H68.54Zm3.52,10H67l1.83-4.91c0.31-.84.53-1.45,0.73-2,0.18,0.5.4,1.1,0.7,2Z" transform="translate(6.79 64.58)"/>
    <polygon points="122.34 159.7 120.04 159.7 120.04 175.5 128.44 175.5 128.44 173.5 122.34 173.5 122.34 159.7"/>
    <path d="M164.66,94.84c-5.09,0-7.75,4.13-7.75,8.2s2.7,8.2,7.8,8.17,7.75-4.13,7.75-8.21-2.7-8.17-7.8-8.15h0Zm5.41,8.18c0,3.07-1.67,6.17-5.41,6.17s-5.36-3.12-5.36-6.22S161,96.8,164.7,96.8s5.35,3.12,5.35,6.25v0Z" transform="translate(6.79 64.58)"/>
    <path d="M220.25,95.12V107c-0.25-.4-0.56-0.89-1-1.46l-7.23-10.38L212,95.08h-2.15V110.9H212V99.46c0-.24,0-0.47,0-0.68,0.22,0.4.5,0.8,0.7,1.13l7.64,11h2V95.12h-2.12Z" transform="translate(6.79 64.58)"/>
  </g>
</svg>
