<?xml version="1.0" standalone="no"?>
<!DOCTYPE svg PUBLIC "-//W3C//DTD SVG 20010904//EN"
 "http://www.w3.org/TR/2001/REC-SVG-20010904/DTD/svg10.dtd">
<svg version="1.0" xmlns="http://www.w3.org/2000/svg"
 width="180.000000pt" height="180.000000pt" viewBox="0 0 180.000000 180.000000"
 preserveAspectRatio="xMidYMid meet">
<metadata>
Created by potrace 1.11, written by Peter Selinger 2001-2013
</metadata>
<g transform="translate(0.000000,180.000000) scale(0.100000,-0.100000)"
fill="#000000" stroke="none">
<path d="M1160 1769 c-103 -12 -244 -58 -320 -104 -106 -65 -197 -172 -247
-290 -20 -47 -52 -187 -68 -297 l-7 -48 -138 0 -138 0 -9 -52 -8 -53 136 -3
136 -3 -82 -445 c-59 -323 -78 -447 -70 -450 7 -3 104 -4 216 -2 l204 3 21
115 c11 63 30 171 42 240 12 69 38 215 57 324 19 110 35 203 35 208 0 4 54 8
119 8 l119 0 71 53 70 52 -178 5 -177 5 38 220 c21 121 45 239 54 262 29 78
108 123 214 123 l53 0 -44 -30 c-69 -46 -94 -91 -94 -167 0 -63 1 -66 41 -103
85 -79 210 -75 306 9 100 87 99 241 -2 341 -73 74 -180 98 -350 79z"/>
</g>
</svg>
